<svg width="50" height="50" viewBox="0 0 50 50" fill="none" xmlns="http://www.w3.org/2000/svg">
<path d="M6 36.8661C6 32.8617 8.9097 29.4508 12.8641 28.8197L13.2203 28.7628C16.3867 28.2575 19.6133 28.2575 22.7797 28.7628L23.1359 28.8197C27.0903 29.4508 30 32.8617 30 36.8661C30 38.5969 28.5969 40 26.8661 40H9.13393C7.40311 40 6 38.5969 6 36.8661Z" stroke="white" stroke-width="3"/>
<path d="M25 15C25 18.866 21.866 22 18 22C14.134 22 11 18.866 11 15C11 11.134 14.134 8 18 8C21.866 8 25 11.134 25 15Z" stroke="white" stroke-width="3"/>
<path d="M30 22C33.866 22 37 18.866 37 15C37 11.134 33.866 8 30 8M34.7797 40H38.8661C40.5969 40 42 38.5969 42 36.8661C42 32.8617 39.0903 29.4508 35.1359 28.8197V28.8197C34.8988 28.7818 34.6587 28.7628 34.4186 28.7628C33.7791 28.7628 33.5805 28.7628 32.4823 28.7628" stroke="#ED9902" stroke-width="3" stroke-linecap="round"/>
</svg>
