<svg width="50" height="50" viewBox="0 0 50 50" fill="none" xmlns="http://www.w3.org/2000/svg">
<path d="M34.375 19.0335C30.5874 20.2961 25.5373 15.246 26.7998 11.4584M28.356 9.90224L20.1959 18.0623C16.6484 21.6098 14.1317 26.0547 12.9149 30.9219L12.5206 32.499C12.3978 32.9904 12.8429 33.4356 13.3343 33.3127L14.9115 32.9184C19.7786 31.7017 24.2236 29.185 27.7711 25.6375L35.9311 17.4774C36.9357 16.4729 37.5 15.1105 37.5 13.6898C37.5 10.7315 35.1018 8.33337 32.1435 8.33337C30.7229 8.33337 29.3605 8.89771 28.356 9.90224Z" stroke="white" stroke-width="3"/>
<path d="M28.356 9.90224C29.3605 8.89771 30.7229 8.33337 32.1436 8.33337C35.1018 8.33337 37.5 10.7315 37.5 13.6898C37.5 15.1105 36.9357 16.4729 35.9311 17.4774L34.375 19.0336C30.5874 20.2961 25.5373 15.246 26.7998 11.4584L28.356 9.90224Z" stroke="#ED9902" stroke-width="3"/>
<path d="M39.5834 41.6666H10.4167" stroke="#ED9902" stroke-width="3" stroke-linecap="round" stroke-linejoin="round"/>
</svg>
