<svg width="50" height="50" viewBox="0 0 50 50" fill="none" xmlns="http://www.w3.org/2000/svg">
<path d="M38.0725 32.9283V31.4283V32.9283ZM44.6129 24.5641L43.1463 24.8784L43.1463 24.8784L44.6129 24.5641ZM44.636 24.6715L46.1027 24.3572L46.1027 24.3571L44.636 24.6715ZM44.636 27.6113L43.1693 27.297L43.1693 27.297L44.636 27.6113ZM38.182 19.3545V17.8545V19.3545ZM36.0413 32.9283L34.5894 32.5513L34.102 34.4283H36.0413V32.9283ZM37.3309 19.3545V17.8545H35.7307L35.834 19.4513L37.3309 19.3545ZM38.0725 31.4283H37.0539V34.4283H38.0725V31.4283ZM43.1463 24.8784L43.1693 24.9858L46.1027 24.3571L46.0796 24.2498L43.1463 24.8784ZM43.1693 24.9858C43.3325 25.7475 43.3325 26.5353 43.1693 27.297L46.1027 27.9256C46.3547 26.7496 46.3547 25.5332 46.1027 24.3572L43.1693 24.9858ZM38.0725 34.4283C41.9466 34.4283 45.2903 31.7164 46.1027 27.9256L43.1693 27.297C42.6522 29.7097 40.5267 31.4283 38.0725 31.4283L38.0725 34.4283ZM38.182 20.8545C40.5723 20.8545 42.6426 22.5284 43.1463 24.8784L46.0796 24.2498C45.2807 20.5217 41.9922 17.8545 38.182 17.8545L38.182 20.8545ZM37.0539 31.4283H36.0413V34.4283H37.0539V31.4283ZM35.834 19.4513C36.1189 23.856 35.6989 28.2787 34.5894 32.5513L37.4931 33.3053C38.6828 28.7236 39.1332 23.9809 38.8277 19.2577L35.834 19.4513ZM38.182 17.8545H37.3309V20.8545H38.182V17.8545Z" fill="#ED9902"/>
<path d="M15.153 6.71384L14.9264 5.23104L14.9264 5.23104L15.153 6.71384ZM27.3664 6.71384L27.5929 5.23105L27.5929 5.23105L27.3664 6.71384ZM26.7371 43.2676L26.9993 44.7445L26.7371 43.2676ZM15.7822 43.2676L16.0444 41.7906L16.0444 41.7906L15.7822 43.2676ZM7.39351 36.0438L8.8268 35.6014L7.39351 36.0438ZM5.54061 15.8465L4.05075 15.6723L4.05075 15.6723L5.54061 15.8465ZM37.1299 17.1394L35.64 17.3136L35.64 17.3136L37.1299 17.1394ZM35.5097 34.8002L34.0764 34.3578L34.0764 34.3578L35.5097 34.8002ZM5.61609 15.2007L7.10595 15.3748L7.10595 15.3748L5.61609 15.2007ZM13.5581 6.95752L13.7846 8.44031L13.7846 8.44031L13.5581 6.95752ZM15.5029 43.218L15.2407 44.6949L15.2408 44.6949L15.5029 43.218ZM35.2097 35.7721L36.643 36.2144L36.643 36.2144L35.2097 35.7721ZM36.9562 15.6535L38.446 15.4793L38.446 15.4793L36.9562 15.6535ZM28.5118 6.88885L28.2853 8.37165L28.2853 8.37165L28.5118 6.88885ZM36.0412 32.9284L34.5894 32.5514L36.0412 32.9284ZM37.3308 19.3546L35.8339 19.4514L37.3308 19.3546ZM35.4663 15.8276L35.64 17.3136L38.6197 16.9653L38.446 15.4793L35.4663 15.8276ZM34.0764 34.3578L33.7764 35.3297L36.643 36.2144L36.9429 35.2425L34.0764 34.3578ZM7.03047 16.0206L7.10595 15.3748L4.12623 15.0266L4.05075 15.6723L7.03047 16.0206ZM16.0444 41.7906L15.7651 41.7411L15.2408 44.6949L15.5201 44.7445L16.0444 41.7906ZM13.7846 8.44031L15.3795 8.19663L14.9264 5.23104L13.3315 5.47473L13.7846 8.44031ZM27.1398 8.19663L28.2853 8.37165L28.7384 5.40606L27.5929 5.23105L27.1398 8.19663ZM15.3795 8.19663C19.2771 7.60112 23.2422 7.60112 27.1398 8.19663L27.5929 5.23105C23.395 4.58965 19.1244 4.58965 14.9264 5.23104L15.3795 8.19663ZM26.4749 41.7906C23.0249 42.4031 19.4944 42.4031 16.0444 41.7906L15.5201 44.7445C19.3169 45.4185 23.2024 45.4185 26.9993 44.7445L26.4749 41.7906ZM8.8268 35.6014C6.87317 29.2715 6.26128 22.6018 7.03047 16.0206L4.05075 15.6723C3.23314 22.6678 3.88353 29.7575 5.96022 36.4861L8.8268 35.6014ZM7.10595 15.3748C7.5219 11.816 10.2582 8.9791 13.7846 8.44031L13.3315 5.47473C8.46482 6.2183 4.69844 10.1308 4.12623 15.0266L7.10595 15.3748ZM5.96022 36.4861C7.27526 40.747 10.8559 43.9164 15.2407 44.6949L15.7651 41.7411C12.4903 41.1597 9.81135 38.7915 8.8268 35.6014L5.96022 36.4861ZM33.7764 35.3297C32.7404 38.6866 29.9213 41.1788 26.4749 41.7906L26.9993 44.7445C31.5556 43.9356 35.2764 40.6421 36.643 36.2144L33.7764 35.3297ZM38.446 15.4793C37.8426 10.3161 33.8705 6.1902 28.7384 5.40606L28.2853 8.37165C32.0771 8.951 35.0191 12.0013 35.4663 15.8276L38.446 15.4793ZM34.5894 32.5514C34.4322 33.1567 34.2612 33.759 34.0764 34.3578L36.9429 35.2425C37.1411 34.6004 37.3245 33.9545 37.4931 33.3054L34.5894 32.5514ZM35.64 17.3136C35.7232 18.0252 35.7878 18.7381 35.8339 19.4514L38.8277 19.2578C38.7782 18.4929 38.7089 17.7284 38.6197 16.9653L35.64 17.3136ZM35.8339 19.4514C36.1188 23.8561 35.6988 28.2789 34.5894 32.5514L37.4931 33.3054C38.6828 28.7237 39.1332 23.981 38.8277 19.2578L35.8339 19.4514Z" fill="white"/>
<path d="M12.5 23.9584V25.5499C12.5 28.6134 13.2133 31.6349 14.5833 34.375" stroke="#ED9902" stroke-width="3" stroke-linecap="round"/>
</svg>
