<svg width="48" height="48" viewBox="0 0 48 48" fill="none" xmlns="http://www.w3.org/2000/svg">
<path d="M40.9393 43.0605C41.5251 43.6463 42.4749 43.6463 43.0607 43.0605C43.6465 42.4748 43.6465 41.525 43.0607 40.9392L40.9393 43.0605ZM33.6096 35.7308L40.9393 43.0605L43.0607 40.9392L35.7309 33.6095L33.6096 35.7308Z" fill="white"/>
<path d="M6.63146 16.648C7.79728 11.6779 11.6779 7.79727 16.648 6.63146C20.2373 5.78952 23.9728 5.78951 27.5621 6.63145C32.5322 7.79727 36.4128 11.6779 37.5786 16.648C38.4206 20.2373 38.4206 23.9728 37.5786 27.5621C36.4128 32.5322 32.5322 36.4128 27.5621 37.5786C23.9728 38.4206 20.2373 38.4206 16.648 37.5786C11.6779 36.4128 7.79728 32.5322 6.63146 27.5621C5.78951 23.9728 5.78951 20.2373 6.63146 16.648Z" stroke="white" stroke-width="3" stroke-linecap="round"/>
<path d="M6.63146 16.648C5.78951 20.2373 5.78951 23.9728 6.63146 27.5621C7.79728 32.5322 11.6779 36.4128 16.648 37.5786C20.2373 38.4206 23.9728 38.4206 27.5621 37.5786C32.5322 36.4128 36.4128 32.5322 37.5786 27.5621C38.4206 23.9728 38.4206 20.2373 37.5786 16.648C36.4128 11.6779 32.5322 7.79727 27.5621 6.63145C23.9728 5.78951 20.2373 5.78952 16.648 6.63146" stroke="white" stroke-width="3" stroke-linecap="round"/>
</svg>
