<svg width="50" height="50" viewBox="0 0 50 50" fill="none" xmlns="http://www.w3.org/2000/svg">
<path d="M33.0737 40.5987L33.4498 40.3386C34.6269 39.5247 35.2156 39.1177 35.7421 38.6813C38.603 36.3101 40.5245 33.005 41.1641 29.3553C41.2818 28.6836 41.343 27.9731 41.4653 26.552L41.5285 25.8171C41.731 23.4649 41.7108 21.099 41.4682 18.7505L41.3932 18.0237C40.9686 13.914 38.4456 10.3119 34.7175 8.49298C28.5878 5.50234 21.4122 5.50234 15.2825 8.49298C11.5543 10.3119 9.03131 13.914 8.60679 18.0237L8.53172 18.7505C8.28914 21.099 8.26895 23.4649 8.47143 25.8171L8.53468 26.552C8.65701 27.9731 8.71817 28.6836 8.83587 29.3553C9.47542 33.005 11.397 36.3101 14.2579 38.6813C14.7844 39.1176 15.3731 39.5247 16.5501 40.3386L16.9263 40.5987C18.5265 41.7053 19.3267 42.2586 20.1286 42.6431C23.2068 44.119 26.7931 44.119 29.8713 42.6431C30.6733 42.2586 31.4734 41.7053 33.0737 40.5987Z" stroke="#ED9902" stroke-width="3"/>
<path d="M41.4653 26.552L41.5285 25.8171C41.731 23.4649 41.7108 21.099 41.4682 18.7505L41.3932 18.0237C40.9686 13.914 38.4456 10.3119 34.7175 8.49298C28.5878 5.50234 21.4122 5.50234 15.2825 8.49298C11.5543 10.3119 9.03131 13.914 8.60679 18.0237L8.53172 18.7505C8.28914 21.099 8.26895 23.4649 8.47143 25.8171L8.53468 26.552C8.65701 27.9731 8.71817 28.6836 8.83587 29.3553C9.47542 33.005 11.397 36.3101 14.2579 38.6813C14.7844 39.1177 15.3731 39.5247 16.5501 40.3386L16.9263 40.5988C18.5265 41.7053 19.3267 42.2586 20.1286 42.6431" stroke="white" stroke-width="3" stroke-linecap="round"/>
<path d="M19.2708 24.4792L23.4375 28.6459L30.7291 20.8334" stroke="#ED9902" stroke-width="3" stroke-linecap="round" stroke-linejoin="round"/>
</svg>
